<svg xmlns="http://www.w3.org/2000/svg" width="512" height="512" viewBox="0 0 512 512">
  <rect x="16" y="16" width="480" height="480" rx="96" fill="#eef0f3"/>
  <circle cx="256" cy="256" r="150" fill="#3d7ff0"/>
  <g transform="translate(106 106) scale(3)" fill="#fff">
    <path d="M89.75 45.56A40 40 0 0 0 11.57 38.89l7.69 2.22A32 32 0 0 1 81.8 46.44Z"/>
    <circle cx="85.78" cy="46" r="4"/>
    <rect x="11.42" y="36" width="40.58" height="8" rx="4"/>
    <rect x="44" y="36" width="22.14" height="8" rx="4" transform="rotate(-135 48 40)"/>
    <rect x="44" y="36" width="22.14" height="8" rx="4" transform="rotate(135 48 40)"/>
    <path d="M10.25 54.44A40 40 0 0 0 88.43 61.11l-7.69-2.22A32 32 0 0 1 18.2 53.56Z"/>
    <circle cx="14.22" cy="54" r="4"/>
    <rect x="80.58" y="56" width="40.58" height="8" rx="4" transform="rotate(180 84.58 60)"/>
    <rect x="48" y="56" width="22.14" height="8" rx="4" transform="rotate(-45 52 60)"/>
    <rect x="48" y="56" width="22.14" height="8" rx="4" transform="rotate(45 52 60)"/>
  </g>
</svg>
